<svg height="512pt" viewBox="0 -32 512 511" width="512pt" xmlns="http://www.w3.org/2000/svg"><path d="m464.867188 88.867188c-25.988282 0-47.132813 21.144531-47.132813 47.132812v224.933594c0 2.328125.539063 4.625 1.582031 6.707031l32.132813 64.269531c2.539062 5.082032 7.734375 8.289063 13.417969 8.289063 5.679687 0 10.875-3.207031 13.414062-8.289063l32.132812-64.269531c1.042969-2.082031 1.585938-4.378906 1.585938-6.707031v-224.933594c0-25.988281-21.144531-47.132812-47.132812-47.132812zm0 30c9.445312 0 17.132812 7.6875 17.132812 17.132812v33.199219h-34.265625v-33.199219c0-9.445312 7.683594-17.132812 17.132813-17.132812zm0 272.792968-17.132813-34.269531v-158.191406h34.265625v158.191406zm0 0"/><path d="m143.53125 175.101562h144.601562c8.285157 0 15-6.71875 15-15 0-8.285156-6.714843-15-15-15h-144.601562c-8.28125 0-15 6.714844-15 15 0 8.28125 6.71875 15 15 15zm0 0"/><path d="m143.53125 239.367188h144.601562c8.285157 0 15-6.714844 15-15 0-8.285157-6.714843-15-15-15h-144.601562c-8.28125 0-15 6.714843-15 15 0 8.285156 6.71875 15 15 15zm0 0"/><path d="m143.53125 303.632812h144.601562c8.285157 0 15-6.714843 15-15 0-8.28125-6.714843-15-15-15h-144.601562c-8.28125 0-15 6.71875-15 15 0 8.285157 6.71875 15 15 15zm0 0"/><path d="m143.53125 367.898438h144.601562c8.285157 0 15-6.714844 15-15 0-8.28125-6.714843-15-15-15h-144.601562c-8.28125 0-15 6.71875-15 15 0 8.285156 6.71875 15 15 15zm0 0"/><path d="m360.433594.5c-14.78125 0-265.835938 0-281.167969 0-43.707031 0-79.265625 35.558594-79.265625 79.265625v224.933594c0 8.285156 6.714844 15 15 15h49.265625v113.535156c0 8.285156 6.71875 15 15 15h273.132813c8.285156 0 15-6.714844 15-15v-322.855469c27.140624-3.4375 48.199218-26.65625 48.199218-54.714844.003906-30.417968-24.746094-55.164062-55.164062-55.164062zm-330.433594 289.199219v-209.933594c0-27.164063 22.101562-49.265625 49.265625-49.265625h8.035156c13.941407 0 25.167969 11.347656 25.167969 25.167969 0 13.875-11.292969 25.167969-25.167969 25.167969h-8.035156c-8.28125 0-15 6.714843-15 15v193.863281zm307.398438 128.535156h-243.132813v-307.398437h243.132813zm23.035156-337.398437h-224.066406c3.886718-7.554688 6.097656-16.105469 6.097656-25.167969 0-8.898438-2.105469-17.46875-6.058594-25.167969h224.027344c13.875 0 25.164062 11.289062 25.164062 25.167969 0 13.875-11.285156 25.167969-25.164062 25.167969zm0 0"/></svg>